method 50	
v -0.399326 -0.399326 0.499326
v -0.499326 -0.399326 0.399326
v -0.399326 -0.499326 0.399326
v -0.499326 0.399326 0.399326
v -0.399326 0.399326 0.499326
v -0.399326 0.499326 0.399326
v -0.499326 -0.399326 -0.399326
v -0.399326 -0.399326 -0.499326
v -0.399326 -0.499326 -0.399326
v -0.499326 0.399326 -0.399326
v -0.399326 0.499326 -0.399326
v -0.399326 0.399326 -0.499326
v 0.499326 -0.399326 0.399326
v 0.399326 -0.399326 0.499326
v 0.399326 -0.499326 0.399326
v 0.499326 0.399326 0.399326
v 0.399326 0.499326 0.399326
v 0.399326 0.399326 0.499326
v 0.399326 -0.399326 -0.499326
v 0.499326 -0.399326 -0.399326
v 0.399326 -0.499326 -0.399326
v 0.399326 0.399326 -0.499326
v 0.399326 0.499326 -0.399326
v 0.499326 0.399326 -0.399326
vt 0.306691 0.998999
vt 0.306691 0.668669
vt 0.002002 0.998999
vt 0.922076 0.002002
vt 0.922076 0.332332
vt 0.617387 0.332332
vt 0.306691 0.665666
vt 0.306691 0.335335
vt 0.002002 0.665666
vt 0.614384 0.002002
vt 0.614384 0.332332
vt 0.309694 0.332332
vt 0.614384 0.335335
vt 0.614384 0.665666
vt 0.309694 0.665666
vt 0.306691 0.332332
vt 0.306691 0.002002
vt 0.002002 0.332332
vt 0.001001 0.001001
vt 0.001001 0.331331
vt 0.305690 0.001001
vt 0.308693 0.664665
vt 0.308693 0.334334
vt 0.613383 0.334334
vt 0.308693 0.331331
vt 0.308693 0.001001
vt 0.613383 0.001001
vt 0.001001 0.664665
vt 0.001001 0.334334
vt 0.305690 0.334334
vt 0.616386 0.001001
vt 0.616386 0.331331
vt 0.921075 0.001001
vt 0.691307 0.915666
vt 0.691307 0.835335
vt 0.617387 0.915666
vt 0.768230 0.915666
vt 0.768230 0.835335
vt 0.694310 0.915666
vt 0.691307 0.998999
vt 0.691307 0.918669
vt 0.617387 0.998999
vt 0.845153 0.835335
vt 0.845153 0.915666
vt 0.771233 0.915666
vt 0.616386 0.917668
vt 0.616386 0.997998
vt 0.690306 0.917668
vt 0.770232 0.914665
vt 0.770232 0.834334
vt 0.844152 0.834334
vt 0.616386 0.834334
vt 0.616386 0.914665
vt 0.690306 0.834334
vt 0.693309 0.914665
vt 0.767229 0.834334
vt 0.693309 0.834334
vt 0.848156 0.665666
vt 0.922076 0.665666
vt 0.922076 0.335335
vt 0.617387 0.748999
vt 0.922076 0.748999
vt 0.922076 0.668669
vt 0.694310 0.665666
vt 0.768230 0.665666
vt 0.768230 0.335335
vt 0.309694 0.832332
vt 0.614384 0.832332
vt 0.614384 0.752002
vt 0.771233 0.665666
vt 0.845153 0.665666
vt 0.845153 0.335335
vt 0.617387 0.665666
vt 0.691307 0.665666
vt 0.691307 0.335335
vt 0.614384 0.918669
vt 0.614384 0.998999
vt 0.309694 0.998999
vt 0.309694 0.748999
vt 0.614384 0.748999
vt 0.614384 0.668669
vt 0.925079 0.332332
vt 0.998999 0.332332
vt 0.998999 0.002002
vt 0.309694 0.915666
vt 0.614384 0.915666
vt 0.614384 0.835335
vt 0.308693 0.997998
vt 0.308693 0.917668
vt 0.613383 0.917668
vt 0.844152 0.334334
vt 0.770232 0.334334
vt 0.770232 0.664665
vt 0.001001 0.667668
vt 0.001001 0.997998
vt 0.305690 0.667668
vt 0.308693 0.834334
vt 0.613383 0.834334
vt 0.308693 0.914665
vt 0.924078 0.001001
vt 0.997998 0.001001
vt 0.924078 0.331331
vt 0.308693 0.667668
vt 0.613383 0.667668
vt 0.308693 0.747998
vt 0.616386 0.334334
vt 0.690306 0.334334
vt 0.616386 0.664665
vt 0.998999 0.665666
vt 0.998999 0.335335
vt 0.925079 0.665666
vt 0.308693 0.751001
vt 0.613383 0.751001
vt 0.308693 0.831331
vt 0.922076 0.832332
vt 0.617387 0.832332
vt 0.922076 0.752002
vt 0.693309 0.334334
vt 0.767229 0.334334
vt 0.693309 0.664665
vt 0.616386 0.667668
vt 0.921075 0.667668
vt 0.616386 0.747998
vt 0.847155 0.334334
vt 0.921075 0.334334
vt 0.847155 0.664665
vt 0.616386 0.751001
vt 0.921075 0.751001
vt 0.616386 0.831331
vt 0.924078 0.334334
vt 0.924078 0.664665
vt 0.997998 0.334334
vn 0.000000 1.000000 0.000000
vn 1.000000 0.000000 0.000000
vn -1.000000 0.000000 0.000000
vn 0.000000 0.000000 -1.000000
vn 0.000000 -1.000000 0.000000
vn -0.000000 0.000000 1.000000
vn -0.577400 -0.577300 0.577400
vn -0.577300 0.577400 0.577400
vn -0.577300 -0.577400 -0.577400
vn -0.577400 0.577300 -0.577400
vn 0.577300 -0.577400 0.577400
vn 0.577400 0.577300 0.577400
vn 0.577400 -0.577300 -0.577400
vn 0.577400 0.577400 -0.577400
vn -0.707100 0.000000 0.707100
vn -0.707100 0.707100 0.000000
vn -0.707100 -0.000000 -0.707100
vn -0.707100 -0.707100 0.000000
vn -0.000000 0.707100 -0.707100
vn 0.707100 0.000000 -0.707100
vn 0.000000 -0.707100 -0.707100
vn 0.707100 0.707100 0.000000
vn 0.707100 -0.000000 0.707100
vn 0.707100 -0.707100 0.000000
vn 0.000000 0.707100 0.707100
vn -0.000000 -0.707100 0.707100
f 17/1/1 23/2/1 6/3/1
f 16/4/2 13/5/2 20/6/2
f 24/7/2 16/8/2 20/9/2
f 10/10/3 7/11/3 2/12/3
f 22/13/4 19/14/4 8/15/4
f 12/16/4 22/17/4 8/18/4
f 3/19/5 9/20/5 15/21/5
f 9/22/5 21/23/5 15/24/5
f 23/25/1 11/26/1 6/27/1
f 5/28/6 1/29/6 14/30/6
f 18/31/6 5/32/6 14/33/6
f 1/34/7 2/35/7 3/36/7
f 4/37/8 5/38/8 6/39/8
f 7/40/9 8/41/9 9/42/9
f 10/43/10 11/44/10 12/45/10
f 13/46/11 14/47/11 15/48/11
f 16/49/12 17/50/12 18/51/12
f 19/52/13 20/53/13 21/54/13
f 22/55/14 23/56/14 24/57/14
f 5/58/15 4/59/15 2/60/15
f 6/61/16 11/62/16 10/63/16
f 8/64/17 7/65/17 10/66/17
f 9/67/18 3/68/18 2/69/18
f 23/70/19 22/71/19 12/72/19
f 20/73/20 19/74/20 22/75/20
f 9/76/21 8/77/21 19/78/21
f 23/79/22 17/80/22 16/81/22
f 14/82/23 13/83/23 16/84/23
f 15/85/24 21/86/24 20/87/24
f 6/88/25 5/89/25 18/90/25
f 15/91/26 14/92/26 1/93/26
f 4/94/3 10/95/3 2/96/3
f 1/97/15 5/98/15 2/99/15
f 4/100/16 6/101/16 10/102/16
f 12/103/17 8/104/17 10/105/17
f 7/106/18 9/107/18 2/108/18
f 11/109/19 23/110/19 12/111/19
f 24/112/20 20/113/20 22/114/20
f 21/115/21 9/116/21 19/117/21
f 24/118/22 23/119/22 16/120/22
f 18/121/23 14/122/23 16/123/23
f 13/124/24 15/125/24 20/126/24
f 17/127/25 6/128/25 18/129/25
f 3/130/26 15/131/26 1/132/26
